<?xml version="1.0" encoding="utf-8"?>
<!-- Generator: Adobe Illustrator 15.0.0, SVG Export Plug-In . SVG Version: 6.00 Build 0)  -->
<!DOCTYPE svg PUBLIC "-//W3C//DTD SVG 1.1//EN" "http://www.w3.org/Graphics/SVG/1.1/DTD/svg11.dtd">
<svg version="1.1" id="图层_1" xmlns="http://www.w3.org/2000/svg" xmlns:xlink="http://www.w3.org/1999/xlink" x="0px" y="0px"
	 width="464px" height="464px" viewBox="-24.5 83.5 464 464" enable-background="new -24.5 83.5 464 464" xml:space="preserve">
<title>Generated with ETE http://etetoolkit.org</title>
<desc>Generated with ETE http://etetoolkit.org</desc>
<g>
	<g transform="matrix(1,0,0,1,0,0)">
		<rect x="0" fill="none" width="516.001" height="620"/>
	</g>
	<g transform="matrix(1,0,0,1,1,1)">
		<rect x="0" fill="none" width="157" height="618"/>
	</g>
	<g transform="matrix(1,0,0,1,1,1)">
		
			<line vector-effect="none" fill="none" stroke="#000000" stroke-width="20" stroke-linejoin="bevel" x1="-8" y1="93" x2="-8" y2="422"/>
	</g>
	<g transform="matrix(1,0,0,1,1,268.5)">
		<text transform="matrix(1 0 0 1 2.441406e-004 7.0005)" font-family="'Verdana'" font-size="5"> </text>
	</g>
	<g transform="matrix(1,0,0,1,3,1)">
		
			<line vector-effect="none" fill="none" stroke="#000000" stroke-width="20" stroke-linejoin="bevel" x1="0" y1="103" x2="120" y2="103"/>
	</g>
	<g transform="matrix(1,0,0,1,123,76)">
		<text transform="matrix(1 0 0 1 2.441406e-004 45.0005)" font-family="'Arial-BoldMT'" font-size="36">A</text>
	</g>
	<g transform="matrix(1,0,0,1,3,1)">
		
			<line vector-effect="none" fill="none" stroke="#808080" stroke-width="20" stroke-linejoin="bevel" stroke-dasharray="20,40" x1="119" y1="103" x2="120" y2="103"/>
	</g>
	<g transform="matrix(1,0,0,1,3,207)">
		
			<line vector-effect="none" fill="none" stroke="#000000" stroke-width="20" stroke-linejoin="bevel" x1="50" y1="93" x2="50" y2="319"/>
	</g>
	<g transform="matrix(1,0,0,1,3,207)">
		
			<line vector-effect="none" fill="none" stroke="#808080" stroke-width="20" stroke-linejoin="bevel" stroke-dasharray="20,40" x1="60" y1="206" x2="40" y2="206"/>
	</g>
	<g transform="matrix(1,0,0,1,3,207)">
		
			<line vector-effect="none" fill="none" stroke="#000000" stroke-width="20" stroke-linejoin="bevel" x1="0" y1="206" x2="60" y2="206"/>
	</g>
	<g transform="matrix(1,0,0,1,61,423)">
		<text transform="matrix(1 0 0 1 2.441406e-004 7.0005)" font-family="'Verdana'" font-size="5"> </text>
	</g>
	<g transform="matrix(1,0,0,1,63,207)">
		
			<line vector-effect="none" fill="none" stroke="#000000" stroke-width="20" stroke-linejoin="bevel" x1="0" y1="103" x2="60" y2="103"/>
	</g>
	<g transform="matrix(1,0,0,1,123,282)">
		<text transform="matrix(1 0 0 1 2.441406e-004 45.0005)" font-family="'Arial-BoldMT'" font-size="36">B</text>
	</g>
	<g transform="matrix(1,0,0,1,63,207)">
		
			<line vector-effect="none" fill="none" stroke="#808080" stroke-width="20" stroke-linejoin="bevel" stroke-dasharray="20,40" x1="59" y1="103" x2="60" y2="103"/>
	</g>
	<g transform="matrix(1,0,0,1,63,413)">
		
			<line vector-effect="none" fill="none" stroke="#000000" stroke-width="20" stroke-linejoin="bevel" x1="0" y1="103" x2="60" y2="103"/>
	</g>
	<g transform="matrix(1,0,0,1,123,488)">
		<text transform="matrix(1 0 0 1 2.441406e-004 45.0005)" font-family="'Arial-BoldMT'" font-size="36">C</text>
	</g>
	<g transform="matrix(1,0,0,1,63,413)">
		
			<line vector-effect="none" fill="none" stroke="#808080" stroke-width="20" stroke-linejoin="bevel" stroke-dasharray="20,40" x1="59" y1="103" x2="60" y2="103"/>
	</g>
	<g transform="matrix(1,0,0,1,258,0)">
		<rect x="0" fill="none" width="258.001" height="620"/>
	</g>
	<g transform="matrix(1,0,0,1,259,1)">
		<rect x="0" fill="none" width="157.001" height="618"/>
	</g>
	<g transform="matrix(-1,0,0,1,416,1)">
		
			<line vector-effect="none" fill="none" stroke="#000000" stroke-width="20" stroke-linejoin="bevel" x1="-8.001" y1="93" x2="-8.001" y2="422"/>
	</g>
	<g transform="matrix(1,0,0,1,414,268.5)">
		<text transform="matrix(1 0 0 1 -2.441406e-004 7.0005)" font-family="'Verdana'" font-size="5"> </text>
	</g>
	<g transform="matrix(-1,0,0,1,414,1)">
		
			<line vector-effect="none" fill="none" stroke="#000000" stroke-width="20" stroke-linejoin="bevel" x1="-0.001" y1="103" x2="120" y2="103"/>
	</g>
	<g transform="matrix(1,0,0,1,259,76)">
		<text transform="matrix(1 0 0 1 -2.441406e-004 45.0005)" font-family="'Arial-BoldMT'" font-size="36">D</text>
	</g>
	<g transform="matrix(-1,0,0,1,414,1)">
		
			<line vector-effect="none" fill="none" stroke="#808080" stroke-width="20" stroke-linejoin="bevel" stroke-dasharray="20,40" x1="119" y1="103" x2="120" y2="103"/>
	</g>
	<g transform="matrix(-1,0,0,1,414,207)">
		
			<line vector-effect="none" fill="none" stroke="#000000" stroke-width="20" stroke-linejoin="bevel" x1="49.999" y1="93" x2="49.999" y2="319"/>
	</g>
	<g transform="matrix(-1,0,0,1,414,207)">
		
			<line vector-effect="none" fill="none" stroke="#808080" stroke-width="20" stroke-linejoin="bevel" stroke-dasharray="20,40" x1="59.999" y1="206" x2="39.999" y2="206"/>
	</g>
	<g transform="matrix(-1,0,0,1,414,207)">
		
			<line vector-effect="none" fill="none" stroke="#000000" stroke-width="20" stroke-linejoin="bevel" x1="-0.001" y1="206" x2="59.999" y2="206"/>
	</g>
	<g transform="matrix(1,0,0,1,354,423)">
		<text transform="matrix(1 0 0 1 -2.441406e-004 7.0005)" font-family="'Verdana'" font-size="5"> </text>
	</g>
	<g transform="matrix(-1,0,0,1,354,207)">
		
			<line vector-effect="none" fill="none" stroke="#000000" stroke-width="20" stroke-linejoin="bevel" x1="-0.001" y1="103" x2="60" y2="103"/>
	</g>
	<g transform="matrix(1,0,0,1,262,282)">
		<text transform="matrix(1 0 0 1 -2.441406e-004 45.0005)" font-family="'Arial-BoldMT'" font-size="36">E</text>
	</g>
	<g transform="matrix(-1,0,0,1,354,207)">
		
			<line vector-effect="none" fill="none" stroke="#808080" stroke-width="20" stroke-linejoin="bevel" stroke-dasharray="20,40" x1="59" y1="103" x2="60" y2="103"/>
	</g>
	<g transform="matrix(-1,0,0,1,354,413)">
		
			<line vector-effect="none" fill="none" stroke="#000000" stroke-width="20" stroke-linejoin="bevel" x1="-0.001" y1="103" x2="60" y2="103"/>
	</g>
	<g transform="matrix(1,0,0,1,265,488)">
		<text transform="matrix(1 0 0 1 -2.441406e-004 45.0005)" font-family="'Arial-BoldMT'" font-size="36">F</text>
	</g>
	<g transform="matrix(-1,0,0,1,354,413)">
		
			<line vector-effect="none" fill="none" stroke="#808080" stroke-width="20" stroke-linejoin="bevel" stroke-dasharray="20,40" x1="59" y1="103" x2="60" y2="103"/>
	</g>
	<g transform="matrix(1,0,0,1,0,0)">
		<polygon fill="none" stroke="#000000" stroke-linecap="square" stroke-linejoin="bevel" points="0,0 0,0 0,0 		"/>
	</g>
	<g transform="matrix(1,0,0,1,0,0)">
		
			<line vector-effect="none" fill="none" stroke="#2E91E5" stroke-width="10" stroke-linejoin="bevel" x1="162.5" y1="104" x2="172.5" y2="104"/>
	</g>
	<g transform="matrix(1,0,0,1,159.5,101.5)">
		<circle fill="#2E91E5" stroke="#2E91E5" stroke-linecap="square" stroke-linejoin="bevel" cx="2.5" cy="2.5" r="2.5"/>
	</g>
	<g transform="matrix(1,0,0,1,0,0)">
		
			<line vector-effect="none" fill="none" stroke="#2E91E5" stroke-width="10" stroke-linejoin="bevel" x1="162.5" y1="310" x2="172.5" y2="310"/>
	</g>
	<g transform="matrix(1,0,0,1,159.5,307.5)">
		<circle fill="#2E91E5" stroke="#2E91E5" stroke-linecap="square" stroke-linejoin="bevel" cx="2.5" cy="2.5" r="2.5"/>
	</g>
	<g transform="matrix(1,0,0,1,0,0)">
		
			<line vector-effect="none" fill="none" stroke="#E15F99" stroke-width="10" stroke-linejoin="bevel" x1="162.5" y1="516" x2="172.5" y2="516"/>
	</g>
	<g transform="matrix(1,0,0,1,159.5,513.5)">
		<circle fill="#E15F99" stroke="#E15F99" stroke-linecap="square" stroke-linejoin="bevel" cx="2.5" cy="2.5" r="2.5"/>
	</g>
	<g transform="matrix(1,0,0,1,0,0)">
		
			<line vector-effect="none" fill="none" stroke="#2E91E5" stroke-width="10" stroke-linejoin="bevel" x1="254.5" y1="104" x2="244.5" y2="104"/>
	</g>
	<g transform="matrix(1,0,0,1,252.5,101.5)">
		<circle fill="#2E91E5" stroke="#2E91E5" stroke-linecap="square" stroke-linejoin="bevel" cx="2.5" cy="2.5" r="2.5"/>
	</g>
	<g transform="matrix(1,0,0,1,0,0)">
		
			<line vector-effect="none" fill="none" stroke="#2E91E5" stroke-width="10" stroke-linejoin="bevel" x1="254.5" y1="310" x2="244.5" y2="310"/>
	</g>
	<g transform="matrix(1,0,0,1,252.5,307.5)">
		<circle fill="#2E91E5" stroke="#2E91E5" stroke-linecap="square" stroke-linejoin="bevel" cx="2.5" cy="2.5" r="2.5"/>
	</g>
	<g transform="matrix(1,0,0,1,0,0)">
		
			<line vector-effect="none" fill="none" stroke="#E15F99" stroke-width="10" stroke-linejoin="bevel" x1="254.5" y1="516" x2="244.5" y2="516"/>
	</g>
	<g transform="matrix(1,0,0,1,252.5,513.5)">
		<circle fill="#E15F99" stroke="#E15F99" stroke-linecap="square" stroke-linejoin="bevel" cx="2.5" cy="2.5" r="2.5"/>
	</g>
	<g transform="matrix(1,0,0,1,0,0)">
		
			<line vector-effect="none" fill="none" stroke="#2E91E5" stroke-width="10" stroke-linejoin="bevel" x1="172.5" y1="104" x2="244.5" y2="310"/>
	</g>
	<g transform="matrix(1,0,0,1,0,0)">
		
			<line vector-effect="none" fill="none" stroke="#2E91E5" stroke-width="10" stroke-linejoin="bevel" x1="172.5" y1="310" x2="244.5" y2="104"/>
	</g>
	<g transform="matrix(1,0,0,1,0,0)">
		
			<line vector-effect="none" fill="none" stroke="#E15F99" stroke-width="10" stroke-linejoin="bevel" x1="172.5" y1="516" x2="244.5" y2="516"/>
	</g>
</g>
</svg>
